<?xml version="1.0" encoding="UTF-8" standalone="no"?>
<!-- Created with Inkscape (http://www.inkscape.org/) -->

<svg
   width="16"
   height="16"
   viewBox="0 0 4.2333332 4.2333335"
   version="1.1"
   id="svg8"
   inkscape:version="1.2.2 (b0a8486541, 2022-12-01)"
   sodipodi:docname="wwlab-plot-symbolic.svg"
   xmlns:inkscape="http://www.inkscape.org/namespaces/inkscape"
   xmlns:sodipodi="http://sodipodi.sourceforge.net/DTD/sodipodi-0.dtd"
   xmlns="http://www.w3.org/2000/svg"
   xmlns:svg="http://www.w3.org/2000/svg"
   xmlns:rdf="http://www.w3.org/1999/02/22-rdf-syntax-ns#"
   xmlns:cc="http://creativecommons.org/ns#"
   xmlns:dc="http://purl.org/dc/elements/1.1/">
  <sodipodi:namedview
     id="base"
     pagecolor="#ffffff"
     bordercolor="#666666"
     borderopacity="1.0"
     inkscape:pageopacity="0.0"
     inkscape:pageshadow="2"
     inkscape:zoom="50.9375"
     inkscape:cx="0.81472393"
     inkscape:cy="8.4417178"
     inkscape:document-units="mm"
     inkscape:current-layer="layer1"
     showgrid="true"
     units="px"
     inkscape:window-width="2560"
     inkscape:window-height="1011"
     inkscape:window-x="0"
     inkscape:window-y="0"
     inkscape:window-maximized="1"
     inkscape:showpageshadow="2"
     inkscape:pagecheckerboard="0"
     inkscape:deskcolor="#d1d1d1">
    <inkscape:grid
       spacingy="0.26458333"
       spacingx="0.26458333"
       id="grid815"
       type="xygrid" />
  </sodipodi:namedview>
  <defs
     id="defs2">
    <marker
       inkscape:stockid="Arrow1Lend"
       orient="auto"
       refY="0.0"
       refX="0.0"
       id="Arrow1Lend"
       style="overflow:visible;"
       inkscape:isstock="true">
      <path
         id="path834"
         d="M 0.0,0.0 L 5.0,-5.0 L -12.5,0.0 L 5.0,5.0 L 0.0,0.0 z "
         style="fill-rule:evenodd;stroke:#000000;stroke-width:1pt;stroke-opacity:1;fill:#000000;fill-opacity:1"
         transform="scale(0.8) rotate(180) translate(12.5,0)" />
    </marker>
  </defs>
  <metadata
     id="metadata5">
    <rdf:RDF>
      <cc:Work
         rdf:about="">
        <dc:format>image/svg+xml</dc:format>
        <dc:type
           rdf:resource="http://purl.org/dc/dcmitype/StillImage" />
        <dc:title />
      </cc:Work>
    </rdf:RDF>
  </metadata>
  <g
     transform="translate(0,-292.76665)"
     id="layer1"
     inkscape:groupmode="layer"
     inkscape:label="Layer 1">
    <path
       style="color:#000000;font-style:normal;font-variant:normal;font-weight:normal;font-stretch:normal;font-size:medium;line-height:normal;font-family:sans-serif;font-variant-ligatures:normal;font-variant-position:normal;font-variant-caps:normal;font-variant-numeric:normal;font-variant-alternates:normal;font-feature-settings:normal;text-indent:0;text-align:start;text-decoration:none;text-decoration-line:none;text-decoration-style:solid;text-decoration-color:#000000;letter-spacing:normal;word-spacing:normal;text-transform:none;writing-mode:lr-tb;direction:ltr;text-orientation:mixed;dominant-baseline:auto;baseline-shift:baseline;text-anchor:start;white-space:normal;shape-padding:0;clip-rule:nonzero;display:inline;overflow:visible;visibility:visible;opacity:1;isolation:auto;mix-blend-mode:normal;color-interpolation:sRGB;color-interpolation-filters:linearRGB;solid-color:#000000;solid-opacity:1;vector-effect:none;fill:#474747;fill-opacity:1;fill-rule:nonzero;stroke:none;stroke-width:0.60000002;stroke-linecap:butt;stroke-linejoin:miter;stroke-miterlimit:4;stroke-dasharray:none;stroke-dashoffset:0;stroke-opacity:1;color-rendering:auto;image-rendering:auto;shape-rendering:auto;text-rendering:auto;enable-background:accumulate"
       d="m 3.6816406,292.76172 c -0.032447,0.11237 -0.065596,0.21625 -0.097656,0.3125 -0.03207,0.0963 -0.062266,0.18462 -0.09375,0.26562 -0.031514,0.0811 -0.063041,0.15381 -0.09375,0.22071 -0.030698,0.0669 -0.062177,0.12782 -0.091797,0.18164 -0.029633,0.0538 -0.058043,0.10115 -0.085937,0.14258 -0.028056,0.0417 -0.055863,0.0782 -0.082031,0.10937 -0.025463,0.0301 -0.051252,0.0568 -0.074219,0.0781 -0.023363,0.0217 -0.044503,0.0394 -0.066406,0.0547 h -0.00195 c -0.020964,0.0147 -0.041451,0.0266 -0.0625,0.0371 -0.020406,0.01 -0.04091,0.0189 -0.060547,0.0254 -0.019194,0.006 -0.040788,0.0122 -0.066406,0.0176 h -0.00195 c -0.016121,0.003 -0.040754,0.008 -0.074219,0.0117 -0.022349,0.003 -0.045965,0.003 -0.072266,0.004 h -0.00195 -0.00195 c -0.027267,0.001 -0.057992,0.002 -0.089844,0.002 -0.031552,1.5e-4 -0.064232,-1.7e-4 -0.099609,0 -0.039979,0 -0.075031,0.001 -0.1074218,0.002 -0.039432,0.001 -0.08374,0.004 -0.1289063,0.01 -0.037876,0.004 -0.07893,0.01 -0.125,0.0195 -0.043581,0.009 -0.087703,0.0202 -0.1328125,0.0352 -0.04624,0.0153 -0.093888,0.0353 -0.140625,0.0586 -0.046308,0.0231 -0.093315,0.0505 -0.1386719,0.082 -0.045356,0.0316 -0.089673,0.0675 -0.1328125,0.10742 -0.042814,0.0397 -0.084242,0.0842 -0.125,0.13282 -0.040971,0.0487 -0.082133,0.10022 -0.1210937,0.1582 -0.038832,0.0577 -0.07589,0.12152 -0.1132813,0.18945 -0.037339,0.0678 -0.075116,0.13987 -0.1113281,0.21875 -0.036232,0.0789 -0.070064,0.16477 -0.10546875,0.25586 h -0.001953 c -0.0354144,0.0912 -0.0686436,0.18828 -0.10351562,0.29297 -0.0348615,0.10468 -0.0709831,0.2165 -0.10546875,0.33594 l 0.57617185,0.16601 c 0.032444,-0.11236 0.065588,-0.2162 0.097656,-0.3125 0.032058,-0.0962 0.064188,-0.1845 0.095703,-0.26562 0.031525,-0.0811 0.06305,-0.15578 0.09375,-0.22266 0.030718,-0.0669 0.060253,-0.12593 0.089844,-0.17969 0.029538,-0.0537 0.05784,-0.10079 0.085938,-0.14257 0.027969,-0.0416 0.056072,-0.0785 0.082031,-0.10938 0.025852,-0.0308 0.050455,-0.0561 0.074219,-0.0781 0.023791,-0.022 0.046786,-0.0397 0.068359,-0.0547 0.021573,-0.015 0.041879,-0.0288 0.0625,-0.0391 0.020193,-0.0101 0.039857,-0.0166 0.060547,-0.0234 0.0212,-0.007 0.043628,-0.0129 0.066406,-0.0176 h 0.00195 c 0.019454,-0.004 0.042134,-0.009 0.070312,-0.0117 h 0.00195 0.00195 c 0.021194,-0.003 0.045642,-0.005 0.072266,-0.006 0.034541,-9.4e-4 0.064846,0 0.091797,0 h 0.00195 c 0.031553,-1.5e-4 0.066185,-0.002 0.1015624,-0.002 0.033233,-1.4e-4 0.06812,-4.5e-4 0.1054688,-0.002 0.040629,-0.001 0.084325,-0.002 0.1289062,-0.008 0.033465,-0.004 0.076145,-0.009 0.1269532,-0.0195 0.041311,-0.009 0.085077,-0.0192 0.1328125,-0.0351 0.046752,-0.0155 0.092746,-0.0358 0.1386719,-0.0586 0.045881,-0.0229 0.092707,-0.0499 0.1386718,-0.082 0.045027,-0.0314 0.089246,-0.0669 0.1328125,-0.10742 0.043375,-0.0402 0.086198,-0.0844 0.1269531,-0.13281 0.040764,-0.0486 0.080269,-0.10244 0.1191407,-0.16016 0.039036,-0.058 0.075984,-0.11978 0.1132812,-0.1875 0.03731,-0.0678 0.075099,-0.14177 0.1113281,-0.2207 0.036221,-0.0789 0.072006,-0.16277 0.1074219,-0.25391 0.035446,-0.0912 0.07061,-0.18832 0.1054688,-0.29297 0.03487,-0.10469 0.069033,-0.21651 0.1035156,-0.33594 z"
       id="path820"
       inkscape:connector-curvature="0" />
    <path
       style="color:#000000;font-style:normal;font-variant:normal;font-weight:normal;font-stretch:normal;font-size:medium;line-height:normal;font-family:sans-serif;font-variant-ligatures:normal;font-variant-position:normal;font-variant-caps:normal;font-variant-numeric:normal;font-variant-alternates:normal;font-feature-settings:normal;text-indent:0;text-align:start;text-decoration:none;text-decoration-line:none;text-decoration-style:solid;text-decoration-color:#000000;letter-spacing:normal;word-spacing:normal;text-transform:none;writing-mode:lr-tb;direction:ltr;text-orientation:mixed;dominant-baseline:auto;baseline-shift:baseline;text-anchor:start;white-space:normal;shape-padding:0;clip-rule:nonzero;display:inline;overflow:visible;visibility:visible;opacity:1;isolation:auto;mix-blend-mode:normal;color-interpolation:sRGB;color-interpolation-filters:linearRGB;solid-color:#000000;solid-opacity:1;vector-effect:none;fill:#474747;fill-opacity:1;fill-rule:nonzero;stroke:none;stroke-width:0.5;stroke-linecap:butt;stroke-linejoin:miter;stroke-miterlimit:4;stroke-dasharray:none;stroke-dashoffset:0;stroke-opacity:1;color-rendering:auto;image-rendering:auto;shape-rendering:auto;text-rendering:auto;enable-background:accumulate"
       d="m 0.01367188,292.76758 v 4.21875 H 4.2324219 v -0.5 H 0.51367188 v -3.71875 z"
       id="path829"
       inkscape:connector-curvature="0" />
  </g>
</svg>
