<?xml version="1.0" encoding="UTF-8" standalone="no"?>
<!-- Created with Inkscape (http://www.inkscape.org/) -->

<svg
   xmlns:dc="http://purl.org/dc/elements/1.1/"
   xmlns:cc="http://creativecommons.org/ns#"
   xmlns:rdf="http://www.w3.org/1999/02/22-rdf-syntax-ns#"
   xmlns:svg="http://www.w3.org/2000/svg"
   xmlns="http://www.w3.org/2000/svg"
   xmlns:sodipodi="http://sodipodi.sourceforge.net/DTD/sodipodi-0.dtd"
   xmlns:inkscape="http://www.inkscape.org/namespaces/inkscape"
   sodipodi:docname="plot.svg"
   inkscape:version="0.92.2 5c3e80d, 2017-08-06"
   id="svg8"
   version="1.1"
   viewBox="0 0 4.2333332 4.2333335"
   height="16"
   width="16">
  <sodipodi:namedview
     inkscape:window-maximized="1"
     inkscape:window-y="27"
     inkscape:window-x="0"
     inkscape:window-height="1016"
     inkscape:window-width="2560"
     units="px"
     showgrid="true"
     inkscape:current-layer="layer1"
     inkscape:document-units="mm"
     inkscape:cy="8.7067485"
     inkscape:cx="4.0932515"
     inkscape:zoom="50.9375"
     inkscape:pageshadow="2"
     inkscape:pageopacity="0.0"
     borderopacity="1.0"
     bordercolor="#666666"
     pagecolor="#ffffff"
     id="base">
    <inkscape:grid
       spacingy="0.26458333"
       spacingx="0.26458333"
       id="grid815"
       type="xygrid" />
  </sodipodi:namedview>
  <defs
     id="defs2">
    <marker
       inkscape:stockid="Arrow1Lend"
       orient="auto"
       refY="0.0"
       refX="0.0"
       id="Arrow1Lend"
       style="overflow:visible;"
       inkscape:isstock="true">
      <path
         id="path834"
         d="M 0.0,0.0 L 5.0,-5.0 L -12.5,0.0 L 5.0,5.0 L 0.0,0.0 z "
         style="fill-rule:evenodd;stroke:#000000;stroke-width:1pt;stroke-opacity:1;fill:#000000;fill-opacity:1"
         transform="scale(0.8) rotate(180) translate(12.5,0)" />
    </marker>
  </defs>
  <metadata
     id="metadata5">
    <rdf:RDF>
      <cc:Work
         rdf:about="">
        <dc:format>image/svg+xml</dc:format>
        <dc:type
           rdf:resource="http://purl.org/dc/dcmitype/StillImage" />
        <dc:title />
      </cc:Work>
    </rdf:RDF>
  </metadata>
  <g
     transform="translate(0,-292.76665)"
     id="layer1"
     inkscape:groupmode="layer"
     inkscape:label="Layer 1">
    <path
       id="path820"
       title="t t*t*t"
       d="m 0.52916665,296.47082 c 0.0395354,-0.11858 0.0790709,-0.22899 0.11860632,-0.33179 0.0395354,-0.10281 0.0790709,-0.19797 0.11860632,-0.28611 0.0395354,-0.0881 0.0790709,-0.1692 0.11860631,-0.24379 0.0395354,-0.0746 0.0790709,-0.14269 0.1186063,-0.20489 0.039535,-0.0622 0.079071,-0.11843 0.1186064,-0.16934 0.039535,-0.0509 0.079071,-0.0965 0.1186063,-0.1372 0.039535,-0.0408 0.079071,-0.0767 0.1186063,-0.10844 0.039535,-0.0317 0.079071,-0.0592 0.1186063,-0.0831 0.039535,-0.0238 0.079071,-0.044 0.1186063,-0.0611 0.039535,-0.0171 0.079071,-0.031 0.1186064,-0.0424 0.039535,-0.0114 0.079071,-0.0203 0.1186063,-0.0272 0.039535,-0.007 0.079071,-0.0118 0.1186063,-0.0154 0.039535,-0.004 0.079071,-0.006 0.1186063,-0.007 0.039536,-0.001 0.079071,-0.002 0.1186063,-0.002 0.039535,-1.5e-4 0.079071,0 0.1186064,-1.5e-4 0.039535,-1.4e-4 0.079071,-5.6e-4 0.1186063,-0.002 0.039535,-0.001 0.079071,-0.003 0.1186063,-0.007 0.039535,-0.004 0.079071,-0.008 0.1186063,-0.0154 0.039535,-0.007 0.079071,-0.0158 0.1186063,-0.0272 0.039535,-0.0114 0.079071,-0.0254 0.1186064,-0.0424 0.039535,-0.0171 0.079071,-0.0372 0.1186063,-0.0611 0.039535,-0.0238 0.079071,-0.0513 0.1186063,-0.0831 0.039535,-0.0317 0.079071,-0.0677 0.1186063,-0.10844 0.039536,-0.0408 0.079071,-0.0863 0.1186063,-0.1372 0.039535,-0.0509 0.079071,-0.10717 0.1186064,-0.16934 0.039535,-0.0622 0.079071,-0.1303 0.1186063,-0.20488 0.039535,-0.0746 0.079071,-0.15569 0.1186063,-0.2438 0.039535,-0.0881 0.079071,-0.18332 0.1186063,-0.2861 0.039535,-0.1028 0.079071,-0.21322 0.1186064,-0.3318"
       style="fill:none;fill-opacity:1;stroke:#000000;stroke-width:0.19998305;stroke-miterlimit:4;stroke-dasharray:none;stroke-opacity:1"
       inkscape:connector-curvature="0" />
    <path
       style="fill:none;stroke:#000000;stroke-width:0.2;stroke-linecap:butt;stroke-linejoin:miter;stroke-miterlimit:4;stroke-dasharray:none;stroke-opacity:1"
       d="M 4.2333333,296.7354 H 0.26458333 v -3.96875"
       id="path829"
       inkscape:connector-curvature="0" />
  </g>
</svg>
