<?xml version="1.0" encoding="UTF-8" standalone="no"?>
<!-- Created with Inkscape (http://www.inkscape.org/) -->

<svg
   xmlns:dc="http://purl.org/dc/elements/1.1/"
   xmlns:cc="http://creativecommons.org/ns#"
   xmlns:rdf="http://www.w3.org/1999/02/22-rdf-syntax-ns#"
   xmlns:svg="http://www.w3.org/2000/svg"
   xmlns="http://www.w3.org/2000/svg"
   xmlns:sodipodi="http://sodipodi.sourceforge.net/DTD/sodipodi-0.dtd"
   xmlns:inkscape="http://www.inkscape.org/namespaces/inkscape"
   width="16"
   height="16"
   viewBox="0 0 4.2333332 4.2333335"
   version="1.1"
   id="svg8"
   inkscape:version="0.92.2 5c3e80d, 2017-08-06"
   sodipodi:docname="spring-symbolic.svg">
  <defs
     id="defs2" />
  <sodipodi:namedview
     id="base"
     pagecolor="#ffffff"
     bordercolor="#666666"
     borderopacity="1.0"
     inkscape:pageopacity="0.0"
     inkscape:pageshadow="2"
     inkscape:zoom="50.9375"
     inkscape:cx="8.0196319"
     inkscape:cy="8"
     inkscape:document-units="mm"
     inkscape:current-layer="layer1"
     showgrid="true"
     units="px"
     inkscape:window-width="2560"
     inkscape:window-height="1016"
     inkscape:window-x="0"
     inkscape:window-y="27"
     inkscape:window-maximized="1">
    <inkscape:grid
       type="xygrid"
       id="grid29"
       dotted="false"
       empspacing="5" />
  </sodipodi:namedview>
  <metadata
     id="metadata5">
    <rdf:RDF>
      <cc:Work
         rdf:about="">
        <dc:format>image/svg+xml</dc:format>
        <dc:type
           rdf:resource="http://purl.org/dc/dcmitype/StillImage" />
        <dc:title />
      </cc:Work>
    </rdf:RDF>
  </metadata>
  <g
     inkscape:label="Layer 1"
     inkscape:groupmode="layer"
     id="layer1"
     transform="translate(0,-292.76664)">
    <path
       style="color:#000000;font-style:normal;font-variant:normal;font-weight:normal;font-stretch:normal;font-size:medium;line-height:normal;font-family:sans-serif;font-variant-ligatures:normal;font-variant-position:normal;font-variant-caps:normal;font-variant-numeric:normal;font-variant-alternates:normal;font-feature-settings:normal;text-indent:0;text-align:start;text-decoration:none;text-decoration-line:none;text-decoration-style:solid;text-decoration-color:#000000;letter-spacing:normal;word-spacing:normal;text-transform:none;writing-mode:lr-tb;direction:ltr;text-orientation:mixed;dominant-baseline:auto;baseline-shift:baseline;text-anchor:start;white-space:normal;shape-padding:0;clip-rule:nonzero;display:inline;overflow:visible;visibility:visible;opacity:1;isolation:auto;mix-blend-mode:normal;color-interpolation:sRGB;color-interpolation-filters:linearRGB;solid-color:#000000;solid-opacity:1;vector-effect:none;fill:#bebebe;fill-opacity:1;fill-rule:nonzero;stroke:none;stroke-width:0.1125;stroke-linecap:butt;stroke-linejoin:miter;stroke-miterlimit:4;stroke-dasharray:none;stroke-dashoffset:0;stroke-opacity:1;color-rendering:auto;image-rendering:auto;shape-rendering:auto;text-rendering:auto;enable-background:accumulate"
       d="m 0,294.0332 v 0.11328 h 0.296875 c 0.1514415,0 0.29297207,0.10136 0.41210938,0.26563 -0.10848738,0.17353 -0.19729362,0.37775 -0.24414063,0.5918 -0.0519703,0.23745 -0.0637605,0.47452 -0.0253906,0.66015 0.019185,0.0928 0.0503635,0.17342 0.1015625,0.23438 0.051199,0.0609 0.12613355,0.0996 0.2109375,0.0996 0.0933405,0 0.17381509,-0.0372 0.23242188,-0.0977 0.0586068,-0.0604 0.0962344,-0.14091 0.1191406,-0.23437 0.045813,-0.18693 0.034309,-0.42429 -0.019531,-0.66211 -0.048445,-0.21399 -0.14397075,-0.41855 -0.2558594,-0.5918 0.11549754,-0.16508 0.2523476,-0.26563 0.4042969,-0.26563 0.13081,0 0.2516773,0.10203 0.3632812,0.22852 -0.1073942,0.17987 -0.1811622,0.40468 -0.2167969,0.63281 -0.037083,0.23741 -0.036723,0.47379 0.00781,0.65821 0.022268,0.0922 0.056073,0.17211 0.1054687,0.23242 0.049396,0.0603 0.1192478,0.0996 0.1992187,0.0996 0.098772,0 0.1836907,-0.0355 0.2460938,-0.0957 0.062403,-0.0602 0.1028999,-0.14244 0.1269531,-0.23632 0.048106,-0.18777 0.034427,-0.42607 -0.023437,-0.66407 -0.055618,-0.22875 -0.1569539,-0.45208 -0.2851562,-0.63086 0.094249,-0.12426 0.1978312,-0.22461 0.328125,-0.22461 h 0.296875 v -0.11328 h -0.296875 c -0.1714996,0 -0.2987239,0.12764 -0.4082032,0.26953 -0.1264819,-0.14403 -0.2693145,-0.26953 -0.4433593,-0.26953 -0.1875851,0 -0.33889739,0.1298 -0.46289065,0.29297 C 0.64158958,294.16174 0.4855016,294.0332 0.296875,294.0332 Z m 1.6796875,0.43555 c 0.1080581,0.15989 0.2022594,0.35616 0.2519531,0.56055 0.054713,0.22503 0.064302,0.44987 0.023437,0.60937 -0.020432,0.0797 -0.053071,0.14249 -0.095703,0.1836 -0.042632,0.0411 -0.094382,0.0625 -0.1679688,0.0625 -0.045326,0 -0.077768,-0.0176 -0.1113281,-0.0586 -0.03356,-0.041 -0.06432,-0.10607 -0.083984,-0.1875 -0.039329,-0.16285 -0.041101,-0.38961 -0.00586,-0.61523 0.031761,-0.20333 0.1019992,-0.39628 0.1894531,-0.55469 z m -0.91015625,0.084 c 0.0821726,0.14643 0.16375899,0.30073 0.203125,0.47461 0.0509826,0.2252 0.0607833,0.45099 0.0214844,0.61133 -0.0196495,0.0802 -0.0501853,0.14272 -0.0898437,0.1836 -0.0396584,0.0409 -0.0862256,0.0625 -0.15234376,0.0625 -0.0533936,0 -0.0911246,-0.0183 -0.125,-0.0586 -0.0338754,-0.0403 -0.0614212,-0.10473 -0.078125,-0.18555 -0.0334077,-0.16162 -0.0239792,-0.38771 0.0253906,-0.61328 0.0380695,-0.17394 0.11628954,-0.32834 0.1953125,-0.47461 z"
       id="path816"
       inkscape:connector-curvature="0" />
    <rect
       style="fill:#bebebe;fill-opacity:1;stroke:none;stroke-width:0.10690471;stroke-miterlimit:4;stroke-dasharray:none;stroke-opacity:1"
       id="rect824"
       width="1.8520833"
       height="2.1166749"
       x="2.3812501"
       y="293.82498" />
  </g>
</svg>
