<?xml version="1.0" encoding="UTF-8" standalone="no"?>
<!-- Created with Inkscape (http://www.inkscape.org/) -->

<svg
   xmlns:dc="http://purl.org/dc/elements/1.1/"
   xmlns:cc="http://creativecommons.org/ns#"
   xmlns:rdf="http://www.w3.org/1999/02/22-rdf-syntax-ns#"
   xmlns:svg="http://www.w3.org/2000/svg"
   xmlns="http://www.w3.org/2000/svg"
   xmlns:sodipodi="http://sodipodi.sourceforge.net/DTD/sodipodi-0.dtd"
   xmlns:inkscape="http://www.inkscape.org/namespaces/inkscape"
   width="16"
   height="16"
   viewBox="0 0 4.2333332 4.2333335"
   version="1.1"
   id="svg8"
   inkscape:version="0.92.2 5c3e80d, 2017-08-06"
   sodipodi:docname="tracker-springmass-vertical-symbolic.svg">
  <defs
     id="defs2" />
  <sodipodi:namedview
     id="base"
     pagecolor="#ffffff"
     bordercolor="#666666"
     borderopacity="1.0"
     inkscape:pageopacity="0.0"
     inkscape:pageshadow="2"
     inkscape:zoom="50.9375"
     inkscape:cx="8"
     inkscape:cy="8"
     inkscape:document-units="mm"
     inkscape:current-layer="layer1"
     showgrid="true"
     units="px"
     inkscape:window-width="2560"
     inkscape:window-height="1016"
     inkscape:window-x="0"
     inkscape:window-y="27"
     inkscape:window-maximized="1">
    <inkscape:grid
       type="xygrid"
       id="grid29"
       dotted="false"
       empspacing="5" />
  </sodipodi:namedview>
  <metadata
     id="metadata5">
    <rdf:RDF>
      <cc:Work
         rdf:about="">
        <dc:format>image/svg+xml</dc:format>
        <dc:type
           rdf:resource="http://purl.org/dc/dcmitype/StillImage" />
        <dc:title />
      </cc:Work>
    </rdf:RDF>
  </metadata>
  <g
     inkscape:label="Layer 1"
     inkscape:groupmode="layer"
     id="layer1"
     transform="translate(0,-292.76664)">
    <path
       style="color:#000000;font-style:normal;font-variant:normal;font-weight:normal;font-stretch:normal;font-size:medium;line-height:normal;font-family:sans-serif;font-variant-ligatures:normal;font-variant-position:normal;font-variant-caps:normal;font-variant-numeric:normal;font-variant-alternates:normal;font-feature-settings:normal;text-indent:0;text-align:start;text-decoration:none;text-decoration-line:none;text-decoration-style:solid;text-decoration-color:#000000;letter-spacing:normal;word-spacing:normal;text-transform:none;writing-mode:lr-tb;direction:ltr;text-orientation:mixed;dominant-baseline:auto;baseline-shift:baseline;text-anchor:start;white-space:normal;shape-padding:0;clip-rule:nonzero;display:inline;overflow:visible;visibility:visible;opacity:1;isolation:auto;mix-blend-mode:normal;color-interpolation:sRGB;color-interpolation-filters:linearRGB;solid-color:#000000;solid-opacity:1;vector-effect:none;fill:#bebebe;fill-opacity:1;fill-rule:nonzero;stroke:none;stroke-width:0.1125;stroke-linecap:butt;stroke-linejoin:miter;stroke-miterlimit:4;stroke-dasharray:none;stroke-dashoffset:0;stroke-opacity:1;color-rendering:auto;image-rendering:auto;shape-rendering:auto;text-rendering:auto;enable-background:accumulate"
       d="m 2.3242188,292.76758 v 0.29687 c 0,0.15144 -0.1013546,0.29102 -0.265625,0.41016 -0.1732809,-0.10804 -0.3783207,-0.19547 -0.5917969,-0.24219 -0.2374519,-0.052 -0.47451904,-0.0657 -0.66015628,-0.0273 -0.0928186,0.0192 -0.17341954,0.0523 -0.234375,0.10351 -0.0609555,0.0512 -0.0996094,0.12418 -0.0996094,0.20899 0,0.0933 0.0372477,0.17381 0.0976563,0.23242 0.0604086,0.0586 0.1409143,0.0962 0.234375,0.11914 0.1869214,0.0458 0.4242865,0.0343 0.6621094,-0.0195 0.2145603,-0.0486 0.4202491,-0.14156 0.59375,-0.25391 0.165084,0.1155 0.2636719,0.25235 0.2636719,0.4043 0,0.13081 -0.1020264,0.25168 -0.2285157,0.36328 -0.179857,-0.10737 -0.4027501,-0.18116 -0.6308593,-0.2168 -0.2374063,-0.0371 -0.47574235,-0.0367 -0.6601563,0.008 -0.092207,0.0223 -0.17211076,0.0561 -0.23242188,0.10547 -0.0603111,0.0494 -0.0996094,0.11924 -0.0996094,0.19921 0,0.0988 0.0355271,0.18369 0.0957031,0.2461 0.060176,0.0624 0.14244453,0.1029 0.23632812,0.12695 0.18776719,0.0481 0.4260701,0.0325 0.6640625,-0.0254 0.2287426,-0.0556 0.4520877,-0.15501 0.6308594,-0.2832 0.124135,0.0942 0.2246112,0.19595 0.2246094,0.32617 v 0.29883 H 2.4375 v -0.29883 c 2.4e-6,-0.17142 -0.1277544,-0.29679 -0.2695312,-0.40625 C 2.3120024,294.31688 2.4375,294.17404 2.4375,294 c 0,-0.1876 -0.1278192,-0.34085 -0.2910156,-0.46484 C 2.309641,293.4075 2.4375,293.25217 2.4375,293.06445 v -0.29687 z m -1.49414068,0.54883 c 0.16162965,-0.0334 0.38771068,-0.024 0.61328128,0.0254 0.1734689,0.038 0.3285918,0.1166 0.4746094,0.19531 -0.1463175,0.082 -0.300921,0.1638 -0.4746094,0.20312 -0.2251996,0.051 -0.45098267,0.0588 -0.61132815,0.0195 -0.0801727,-0.0197 -0.14271616,-0.0502 -0.18359375,-0.0899 -0.0408776,-0.0397 -0.0625,-0.0862 -0.0625,-0.15234 0,-0.0534 0.018263,-0.0892 0.0585938,-0.12305 0.0403307,-0.0339 0.10473205,-0.0614 0.18554687,-0.0781 z m 0.61718748,0.9414 c 0.2026914,0.0317 0.3945421,0.10244 0.5527344,0.18946 -0.1596741,0.10759 -0.354825,0.20045 -0.5585938,0.25 -0.22503,0.0547 -0.44987527,0.0663 -0.60937495,0.0254 -0.0797498,-0.0204 -0.14248357,-0.0531 -0.18359375,-0.0957 -0.0411102,-0.0426 -0.0625,-0.0944 -0.0625,-0.16797 0,-0.0453 0.0176182,-0.0797 0.0585938,-0.11328 0.0409756,-0.0336 0.10607276,-0.0624 0.1875,-0.082 0.16285448,-0.0393 0.38961685,-0.0411 0.61523435,-0.006 z"
       id="path816"
       inkscape:connector-curvature="0" />
    <rect
       style="fill:#bebebe;fill-opacity:1;stroke:none;stroke-width:0.09354129;stroke-miterlimit:4;stroke-dasharray:none;stroke-opacity:1"
       id="rect814"
       width="1.8520833"
       height="1.8520774"
       x="1.3229166"
       y="295.14789" />
  </g>
</svg>
