<?xml version="1.0" encoding="UTF-8" standalone="no"?>
<!-- Created with Inkscape (http://www.inkscape.org/) -->

<svg
   xmlns:dc="http://purl.org/dc/elements/1.1/"
   xmlns:cc="http://creativecommons.org/ns#"
   xmlns:rdf="http://www.w3.org/1999/02/22-rdf-syntax-ns#"
   xmlns:svg="http://www.w3.org/2000/svg"
   xmlns="http://www.w3.org/2000/svg"
   xmlns:sodipodi="http://sodipodi.sourceforge.net/DTD/sodipodi-0.dtd"
   xmlns:inkscape="http://www.inkscape.org/namespaces/inkscape"
   width="16"
   height="16"
   viewBox="0 0 4.2333332 4.2333335"
   version="1.1"
   id="svg8"
   inkscape:version="0.92.2 5c3e80d, 2017-08-06"
   sodipodi:docname="tracker-spring-symbolic.svg">
  <defs
     id="defs2" />
  <sodipodi:namedview
     id="base"
     pagecolor="#ffffff"
     bordercolor="#666666"
     borderopacity="1.0"
     inkscape:pageopacity="0.0"
     inkscape:pageshadow="2"
     inkscape:zoom="50.9375"
     inkscape:cx="8"
     inkscape:cy="8"
     inkscape:document-units="mm"
     inkscape:current-layer="layer1"
     showgrid="true"
     units="px"
     inkscape:window-width="2560"
     inkscape:window-height="1016"
     inkscape:window-x="0"
     inkscape:window-y="27"
     inkscape:window-maximized="1">
    <inkscape:grid
       type="xygrid"
       id="grid29"
       dotted="false"
       empspacing="5" />
  </sodipodi:namedview>
  <metadata
     id="metadata5">
    <rdf:RDF>
      <cc:Work
         rdf:about="">
        <dc:format>image/svg+xml</dc:format>
        <dc:type
           rdf:resource="http://purl.org/dc/dcmitype/StillImage" />
        <dc:title></dc:title>
      </cc:Work>
    </rdf:RDF>
  </metadata>
  <g
     inkscape:label="Layer 1"
     inkscape:groupmode="layer"
     id="layer1"
     transform="translate(0,-292.76664)">
    <path
       style="color:#000000;font-style:normal;font-variant:normal;font-weight:normal;font-stretch:normal;font-size:medium;line-height:normal;font-family:sans-serif;font-variant-ligatures:normal;font-variant-position:normal;font-variant-caps:normal;font-variant-numeric:normal;font-variant-alternates:normal;font-feature-settings:normal;text-indent:0;text-align:start;text-decoration:none;text-decoration-line:none;text-decoration-style:solid;text-decoration-color:#000000;letter-spacing:normal;word-spacing:normal;text-transform:none;writing-mode:lr-tb;direction:ltr;text-orientation:mixed;dominant-baseline:auto;baseline-shift:baseline;text-anchor:start;white-space:normal;shape-padding:0;clip-rule:nonzero;display:inline;overflow:visible;visibility:visible;opacity:1;isolation:auto;mix-blend-mode:normal;color-interpolation:sRGB;color-interpolation-filters:linearRGB;solid-color:#000000;solid-opacity:1;vector-effect:none;fill:#bebebe;fill-opacity:1;fill-rule:nonzero;stroke:none;stroke-width:0.30000001;stroke-linecap:butt;stroke-linejoin:miter;stroke-miterlimit:4;stroke-dasharray:none;stroke-dashoffset:0;stroke-opacity:1;color-rendering:auto;image-rendering:auto;shape-rendering:auto;text-rendering:auto;enable-background:accumulate"
       d="m 0,292.88086 v 0.30078 h 0.52929688 c 0.23505451,0 0.47210782,0.19042 0.67968752,0.51953 -0.1910983,0.35923 -0.34915266,0.77543 -0.43164065,1.21289 -0.0926991,0.49161 -0.11566817,0.98088 -0.046875,1.36719 0.0343966,0.19315 0.089621,0.36354 0.18554687,0.49609 0.0959259,0.13256 0.24846848,0.22657 0.41992188,0.22657 0.1838698,0 0.3467752,-0.0868 0.4570313,-0.21875 0.110256,-0.13191 0.1776287,-0.3033 0.21875,-0.49805 0.082242,-0.3895 0.05895,-0.88055 -0.037109,-1.37305 -0.085452,-0.43811 -0.2496449,-0.85583 -0.4472656,-1.21484 0.2008125,-0.32867 0.4290472,-0.51758 0.6640624,-0.51758 0.2008167,0 0.4049395,0.19989 0.5957032,0.44531 -0.1889315,0.37306 -0.3220514,0.8289 -0.3847656,1.29493 -0.066128,0.49138 -0.064185,0.98164 0.015625,1.36523 0.039905,0.1918 0.097252,0.35761 0.1894531,0.48828 0.092201,0.13067 0.2353993,0.22852 0.4003906,0.22852 0.192184,0 0.3628432,-0.0832 0.4804687,-0.21485 0.1176256,-0.13165 0.1892087,-0.30422 0.2324219,-0.5 0.086427,-0.39155 0.060286,-0.88401 -0.042969,-1.37695 -0.098063,-0.46815 -0.2754136,-0.92569 -0.5019532,-1.29688 0.1599672,-0.23801 0.3303261,-0.43359 0.5292969,-0.43359 h 0.5273438 v -0.30078 H 3.7050781 c -0.3158679,-10e-6 -0.5307299,0.27049 -0.7265625,0.54687 -0.2233174,-0.27979 -0.4665663,-0.54687 -0.7871094,-0.54687 -0.3456815,0 -0.6044559,0.27697 -0.8242187,0.59375 -0.2260858,-0.31808 -0.49096728,-0.59375 -0.83789062,-0.59375 z m 2.9941406,1.08203 c 0.1585415,0.30576 0.3112562,0.64019 0.3886719,1.00977 0.09688,0.4625 0.1166653,0.92497 0.044922,1.25 -0.035872,0.16251 -0.09496,0.28789 -0.1640625,0.36523 -0.069102,0.0773 -0.1416284,0.11523 -0.2558594,0.11523 -0.057759,0 -0.099022,-0.0232 -0.1542969,-0.10156 -0.055275,-0.0783 -0.1079376,-0.21046 -0.1425781,-0.37695 -0.069281,-0.33299 -0.074168,-0.79767 -0.011719,-1.26172 0.049415,-0.3672 0.169384,-0.69712 0.2949218,-1 z M 1.3710938,294.125 c 0.1180676,0.27211 0.2501302,0.53595 0.3105468,0.8457 0.090295,0.46294 0.1042189,0.92683 0.035156,1.25391 -0.034531,0.16354 -0.089861,0.2901 -0.1542969,0.36719 -0.064436,0.0771 -0.1269523,0.11132 -0.2265625,0.11132 -0.074232,0 -0.1204629,-0.0251 -0.1757813,-0.10156 -0.055318,-0.0764 -0.1053589,-0.20596 -0.1347656,-0.37109 -0.0588134,-0.33027 -0.0405846,-0.79594 0.046875,-1.25977 0.058441,-0.30993 0.1854118,-0.57378 0.2988282,-0.8457 z"
       id="path816"
       inkscape:connector-curvature="0" />
  </g>
</svg>
