<?xml version="1.0" encoding="UTF-8" standalone="no"?>
<!-- Created with Inkscape (http://www.inkscape.org/) -->

<svg
   xmlns:dc="http://purl.org/dc/elements/1.1/"
   xmlns:cc="http://creativecommons.org/ns#"
   xmlns:rdf="http://www.w3.org/1999/02/22-rdf-syntax-ns#"
   xmlns:svg="http://www.w3.org/2000/svg"
   xmlns="http://www.w3.org/2000/svg"
   xmlns:sodipodi="http://sodipodi.sourceforge.net/DTD/sodipodi-0.dtd"
   xmlns:inkscape="http://www.inkscape.org/namespaces/inkscape"
   inkscape:version="0.92.2 5c3e80d, 2017-08-06"
   width="16"
   height="16"
   viewBox="0 0 4.2333332 4.2333335"
   version="1.1"
   id="svg8"
   sodipodi:docname="wwlab-waveform-symbolic.svg">
  <sodipodi:namedview
     id="base"
     pagecolor="#ffffff"
     bordercolor="#666666"
     borderopacity="1.0"
     inkscape:pageopacity="0.0"
     inkscape:pageshadow="2"
     inkscape:zoom="50.9375"
     inkscape:cx="8"
     inkscape:cy="9.5705521"
     inkscape:document-units="mm"
     inkscape:current-layer="layer1"
     showgrid="true"
     units="px"
     inkscape:window-width="2560"
     inkscape:window-height="1016"
     inkscape:window-x="0"
     inkscape:window-y="27"
     inkscape:window-maximized="1">
    <inkscape:grid
       type="xygrid"
       id="grid815" />
  </sodipodi:namedview>
  <defs
     id="defs2" />
  <metadata
     id="metadata5">
    <rdf:RDF>
      <cc:Work
         rdf:about="">
        <dc:format>image/svg+xml</dc:format>
        <dc:type
           rdf:resource="http://purl.org/dc/dcmitype/StillImage" />
        <dc:title></dc:title>
      </cc:Work>
    </rdf:RDF>
  </metadata>
  <g
     inkscape:label="Layer 1"
     inkscape:groupmode="layer"
     id="layer1"
     transform="translate(0,-292.76665)">
    <path
       style="color:#000000;font-style:normal;font-variant:normal;font-weight:normal;font-stretch:normal;font-size:medium;line-height:normal;font-family:sans-serif;font-variant-ligatures:normal;font-variant-position:normal;font-variant-caps:normal;font-variant-numeric:normal;font-variant-alternates:normal;font-feature-settings:normal;text-indent:0;text-align:start;text-decoration:none;text-decoration-line:none;text-decoration-style:solid;text-decoration-color:#000000;letter-spacing:normal;word-spacing:normal;text-transform:none;writing-mode:lr-tb;direction:ltr;text-orientation:mixed;dominant-baseline:auto;baseline-shift:baseline;text-anchor:start;white-space:normal;shape-padding:0;clip-rule:nonzero;display:inline;overflow:visible;visibility:visible;opacity:1;isolation:auto;mix-blend-mode:normal;color-interpolation:sRGB;color-interpolation-filters:linearRGB;solid-color:#000000;solid-opacity:1;vector-effect:none;fill:#bebebe;fill-opacity:1;fill-rule:nonzero;stroke:none;stroke-width:0.30000001;stroke-linecap:butt;stroke-linejoin:miter;stroke-miterlimit:4;stroke-dasharray:none;stroke-dashoffset:0;stroke-opacity:1;color-rendering:auto;image-rendering:auto;shape-rendering:auto;text-rendering:auto;enable-background:accumulate"
       d="m 2.1171875,292.88477 c -0.080952,-2.3e-4 -0.1225686,0.0528 -0.140625,0.0801 -0.018056,0.0273 -0.027491,0.0491 -0.035156,0.0723 -0.01533,0.0464 -0.025809,0.0976 -0.037109,0.16601 -0.04511,0.2732 -0.086285,0.77902 -0.1289063,1.32813 -0.027054,0.34854 -0.053181,0.63378 -0.080078,0.94141 -0.00114,-0.0127 -0.00276,-0.0204 -0.00391,-0.0332 -0.042441,-0.47697 -0.085967,-1.03803 -0.1289062,-1.45703 -0.021482,-0.20962 -0.041863,-0.38196 -0.064453,-0.50781 -0.011295,-0.0629 -0.022593,-0.11352 -0.037109,-0.1582 -0.00726,-0.0224 -0.015354,-0.0423 -0.029297,-0.0664 -0.013943,-0.0242 -0.031796,-0.0643 -0.099609,-0.0859 -0.066891,-0.0214 -0.1430391,0.0183 -0.1699218,0.0469 -0.026883,0.0286 -0.035878,0.0509 -0.044922,0.0723 -0.018088,0.0428 -0.029396,0.0858 -0.041016,0.14063 -0.02324,0.10956 -0.044868,0.25815 -0.066406,0.43945 -0.0430251,0.36217 -0.0846218,0.83693 -0.1269531,1.22656 -0.006688,0.0616 -0.0128612,0.10185 -0.0195313,0.15821 -0.0222204,-0.15638 -0.0439283,-0.29062 -0.0664063,-0.45117 -0.0428588,-0.30614 -0.0807776,-0.55976 -0.13476562,-0.71485 -0.0134797,-0.0387 -0.0281121,-0.0719 -0.0546875,-0.10742 -0.0265754,-0.0355 -0.0860573,-0.0848 -0.1640625,-0.0781 -0.0780052,0.007 -0.11756114,0.0539 -0.140625,0.0859 -0.0230639,0.032 -0.0374621,0.0614 -0.0507813,0.0957 -0.0523655,0.13485 -0.0907807,0.32932 -0.1328125,0.50586 l 0.29101563,0.0703 c 0.0117336,-0.0493 0.0213969,-0.0775 0.0332031,-0.12696 0.0200283,0.11174 0.0366339,0.16764 0.0566406,0.31055 0.0423485,0.30248 0.0844898,0.64287 0.12890625,0.875 0.022289,0.11649 0.0354525,0.19598 0.078125,0.27344 0.0106681,0.0194 0.0248989,0.0392 0.0527344,0.0625 0.0278354,0.0233 0.083462,0.0494 0.13867188,0.0391 0.0552099,-0.0103 0.0869794,-0.0431 0.1054687,-0.0664 0.018489,-0.0233 0.028472,-0.0438 0.037109,-0.0645 0.034652,-0.0827 0.052306,-0.18182 0.074219,-0.32226 0.021913,-0.14045 0.043027,-0.3145 0.064453,-0.51172 0.033244,-0.30599 0.066748,-0.63996 0.099609,-0.94922 0.037582,0.39302 0.075334,0.86454 0.1132812,1.29101 0.021368,0.24015 0.042758,0.45584 0.064453,0.62891 0.021695,0.17307 0.038985,0.29429 0.072266,0.38672 0.00839,0.0233 0.016015,0.0457 0.041016,0.0762 0.0125,0.0152 0.02915,0.0346 0.060547,0.0488 0.031397,0.0142 0.077719,0.0186 0.1132812,0.008 0.071126,-0.0215 0.089648,-0.0631 0.1035156,-0.0879 0.013867,-0.0247 0.022129,-0.0452 0.029297,-0.0684 0.028673,-0.0925 0.048635,-0.22162 0.070312,-0.4082 0.043325,-0.37293 0.084405,-0.94793 0.1269532,-1.4961 0.014179,-0.18267 0.028723,-0.26778 0.042969,-0.43359 0.014243,0.16583 0.02684,0.25099 0.041016,0.43359 0.04255,0.54811 0.085588,1.12281 0.1289063,1.4961 0.021679,0.1868 0.041607,0.31574 0.070312,0.4082 0.00718,0.0231 0.013443,0.0436 0.027344,0.0684 0.0139,0.0247 0.032526,0.0645 0.1035156,0.0859 0.035495,0.0107 0.081938,0.008 0.1132813,-0.006 0.031344,-0.0142 0.049977,-0.0336 0.0625,-0.0488 0.025045,-0.0304 0.032606,-0.0529 0.041016,-0.0762 0.033475,-0.0926 0.05057,-0.21356 0.072266,-0.38672 0.021695,-0.17316 0.043086,-0.38885 0.064453,-0.62891 0.037892,-0.42569 0.075754,-0.89615 0.1132812,-1.28906 0.032793,0.30872 0.064483,0.64179 0.097656,0.94727 0.021427,0.1973 0.04254,0.37133 0.064453,0.51172 0.021913,0.14038 0.039746,0.23967 0.074219,0.32226 0.00863,0.0207 0.018605,0.041 0.037109,0.0645 0.018504,0.0234 0.050028,0.0562 0.1054688,0.0664 0.05544,0.0103 0.112906,-0.0157 0.140625,-0.0391 0.027719,-0.0234 0.040151,-0.0432 0.050781,-0.0625 0.04252,-0.0774 0.057794,-0.15724 0.080078,-0.27344 0.044429,-0.23195 0.086559,-0.57245 0.1289062,-0.875 0.019641,-0.14032 0.036946,-0.19423 0.056641,-0.30469 0.011266,0.0473 0.020066,0.0741 0.03125,0.1211 l 0.2929688,-0.0703 c -0.042026,-0.17652 -0.082322,-0.37102 -0.1347656,-0.50586 -0.013313,-0.0342 -0.025817,-0.0637 -0.048828,-0.0957 -0.023011,-0.032 -0.062638,-0.0791 -0.140625,-0.0859 -0.077987,-0.007 -0.1393912,0.0426 -0.1660156,0.0781 -0.026624,0.0355 -0.039256,0.0686 -0.052734,0.10742 -0.053877,0.15509 -0.091904,0.40862 -0.1347656,0.71485 -0.022375,0.15985 -0.044285,0.29341 -0.066406,0.44921 -0.00662,-0.0559 -0.012896,-0.0951 -0.019531,-0.15625 -0.042331,-0.3898 -0.085878,-0.8646 -0.1289063,-1.22656 -0.021536,-0.18117 -0.041217,-0.32981 -0.064453,-0.43945 -0.011618,-0.0548 -0.0229,-0.0978 -0.041016,-0.14063 -0.00906,-0.0214 -0.017781,-0.0435 -0.044922,-0.0723 -0.027141,-0.0287 -0.1053034,-0.067 -0.171875,-0.0449 -0.066903,0.0221 -0.085753,0.0599 -0.099609,0.084 -0.013856,0.0241 -0.022044,0.0441 -0.029297,0.0664 -0.014505,0.0446 -0.02386,0.0953 -0.035156,0.1582 -0.022592,0.12576 -0.044923,0.29804 -0.066406,0.50781 -0.042937,0.41928 -0.084512,0.98022 -0.1269531,1.45703 -0.00128,0.0143 -0.00263,0.023 -0.00391,0.0371 -0.027008,-0.30849 -0.054864,-0.59535 -0.082031,-0.94531 -0.04262,-0.54904 -0.083771,-1.05528 -0.1289062,-1.32813 -0.0113,-0.0683 -0.021799,-0.11968 -0.037109,-0.16601 -0.00766,-0.0232 -0.015245,-0.0451 -0.033203,-0.0723 -0.017958,-0.0272 -0.059673,-0.0798 -0.140625,-0.0801 z"
       id="path1220"
       inkscape:connector-curvature="0" />
  </g>
</svg>
